<?xml version="1.0" encoding="UTF-8"?>
<svg id="_Шар_1" data-name="Шар 1" xmlns="http://www.w3.org/2000/svg" viewBox="0 0 324.78 282.78">
  <defs>
    <style>
      .cls-1 {
        fill: #6c1cd1;
      }

      .cls-1, .cls-2 {
        stroke-width: 0px;
      }

      .cls-2 {
        fill: #fff;
      }
    </style>
  </defs>
  <g>
    <path class="cls-2" d="M48.75,236.09l1.06,1.06.02-.02c-.36-.34-.73-.68-1.08-1.04ZM255.73,29.12c.35.35.7.71,1.04,1.08l.02-.02-1.06-1.06Z"/>
    <path class="cls-2" d="M244.55,38.18l1.06,1.06c-10.92-10.92-30.71-12.24-55.74-3.73-26.72,9.09-55.5,28.16-81.04,53.69-25.53,25.53-44.59,54.31-53.69,81.04-8.51,25.03-7.18,44.82,3.73,55.74l-1.06-1.06-1.03,1.03-1.07,1.06-8,8c-14.04-15.07-16.23-39.63-6.11-69.37,9.78-28.76,30.07-59.5,57.12-86.55,27.05-27.05,57.78-47.34,86.55-57.12,29.74-10.12,54.3-7.93,69.38,6.11l-10.1,10.1Z"/>
  </g>
  <path class="cls-1" d="M217.67,49.13c-24.23,1.14-40.18,10.45-53.9,23.5-13.73-13.08-29.62-22.43-53.88-23.5-42.46-1.87-75.77,26.15-75.77,73.67,0,63.52,96.2,130.06,129.65,130.06s129.66-66.34,129.66-130.06c0-47.72-31.15-75.77-75.77-73.67Z"/>
  <g>
    <path class="cls-2" d="M254.67,28.06l-.02.02c.37.34.73.69,1.08,1.04l-1.06-1.06ZM47.71,235.01l-.02.02,1.06,1.06c-.35-.35-.7-.71-1.04-1.08Z"/>
    <path class="cls-2" d="M262.88,99.58c-9.78,28.76-30.07,59.5-57.12,86.55-27.05,27.05-57.79,47.33-86.55,57.12-12.23,4.16-23.67,6.27-33.98,6.27-14.69,0-26.59-4.17-35.4-12.39-.36-.34-.73-.68-1.08-1.04-.35-.35-.7-.71-1.04-1.08l8-8,1.07-1.06,1.03-1.03,1.06,1.06c10.91,10.91,30.71,12.24,55.74,3.72,26.72-9.09,55.5-28.16,81.03-53.69,25.54-25.53,44.6-54.31,53.7-81.04,8.51-25.02,7.18-44.82-3.73-55.73l-1.06-1.06,10.1-10.1c.37.34.73.69,1.08,1.04.35.35.7.71,1.04,1.08,14.04,15.08,16.23,39.64,6.11,69.38Z"/>
  </g>
  <path class="cls-2" d="M254.98,132.94h-16.54v-16.54c0-3.69-2.99-6.68-6.68-6.68h-17.34c-3.69,0-6.68,2.99-6.68,6.68v16.54h-16.54c-3.69,0-6.68,2.99-6.68,6.68v17.34c0,3.69,2.99,6.68,6.68,6.68h16.54v16.54c0,3.69,2.99,6.68,6.68,6.68h17.34c3.69,0,6.68-2.99,6.68-6.68v-16.54h16.54c3.69,0,6.68-2.99,6.68-6.68v-17.34c0-3.69-2.99-6.68-6.68-6.68Z"/>
</svg>